<?xml version="1.0" encoding="UTF-8"?>
<!DOCTYPE svg PUBLIC "-//W3C//DTD SVG 1.1//EN" "http://www.w3.org/Graphics/SVG/1.1/DTD/svg11.dtd">
<!-- Creator: CorelDRAW X8 -->
<svg xmlns="http://www.w3.org/2000/svg" xml:space="preserve" width="1000px" height="1000px" version="1.1" style="shape-rendering:geometricPrecision; text-rendering:geometricPrecision; image-rendering:optimizeQuality; fill-rule:evenodd; clip-rule:evenodd"
viewBox="0 0 100000 100000"
 xmlns:xlink="http://www.w3.org/1999/xlink">
 <defs>
  <style type="text/css">
   <![CDATA[
    .fil0 {fill:none}
    .fil1 {fill:#F4AE28}
   ]]>
  </style>
 </defs>
 <g id="Layer_x0020_1">
  <metadata id="CorelCorpID_0Corel-Layer"/>
  <rect class="fil0" width="100000" height="100000"/>
  <g id="_1908766376320">
   <g>
    <path class="fil1" d="M32859 79500c0,-5536 1871,-9341 5291,-12789 771,-777 2384,-2174 3511,-2437l0 -50672c-4,-3180 318,-5022 1843,-6721 3664,-4081 9083,-4143 12852,-122 1490,1590 1970,3544 1959,6605l-1 50910c3747,873 8802,8154 8802,14512 0,3857 -1000,6970 -2946,9900 -1506,2267 -3869,4462 -6408,5725 -5576,2775 -12853,2319 -17873,-1482 -4177,-3163 -7030,-7889 -7030,-13429zm4996 -17367c-3502,1853 -6859,7194 -7956,11076 -2100,7431 -215,15130 5161,20505 1911,1911 3246,2898 5807,4185 5573,2801 12668,2801 18242,0 10956,-5507 15009,-18326 9127,-29035 -900,-1638 -1547,-2365 -2646,-3777 -540,-693 -933,-1040 -1566,-1527 -825,-635 -898,-895 -1904,-1427 0,-12212 0,-24424 0,-36636 0,-8750 1756,-18052 -4514,-22844 -6615,-5056 -15962,-2661 -19008,5269 -1406,3660 -743,12530 -743,17575 0,12212 0,24424 0,36636z"/>
    <path class="fil1" d="M41186 79738c0,-1719 689,-1904 2141,-1904 1192,0 1315,1468 1438,2606 570,5255 6888,3572 6888,5721 0,4305 -5957,1181 -7755,-334 -1245,-1050 -2712,-3862 -2712,-6089zm4758 -21649l-191 2639c-28,941 888,4570 -1339,6537 -2400,2120 -7273,3316 -7273,12710 0,2328 1137,5227 2448,6831 1543,1889 2818,3065 5165,4113 3359,1500 6877,1528 10303,73 1833,-779 2388,-1366 3738,-2447 774,-619 2160,-2496 2693,-3492 2491,-4660 1608,-11139 -2279,-15012 -2385,-2377 -3688,-2148 -4559,-4006 -1050,-2236 -402,-3330 -427,-4117l-191 -2877c0,-937 169,-1089 168,-1666 0,-512 -162,-993 -177,-1893 -40,-2500 887,-8098 -4035,-8098 -5078,0 -3928,5869 -4060,7365 -286,3229 16,1112 16,3340z"/>
    <path class="fil1" d="M72350 21929c2678,0 5234,1017 5234,-2379 0,-2354 -6308,-1666 -8802,-1666 -2993,0 -3186,2378 -2267,3450 987,1151 4284,595 5835,595z"/>
    <path class="fil1" d="M22392 19550c0,2506 786,2310 3337,2374 1008,25 1316,266 2264,150 2556,-312 3733,173 4771,-222 701,-267 1003,-669 1152,-1479 615,-3361 -5252,-2489 -8907,-2489 -1145,0 -2617,653 -2617,1666z"/>
    <path class="fil1" d="M68068 46432l7613 0c2014,0 2351,-2381 1467,-3370 -1063,-1189 -6202,-674 -9080,-674 -2726,0 -2726,4044 0,4044z"/>
    <path class="fil1" d="M22392 44291c0,1275 560,2141 1903,2141l7613 0c2726,0 2726,-4044 0,-4044 -2680,0 -7837,-456 -8959,558 -402,363 -557,664 -557,1345z"/>
    <path class="fil1" d="M68306 34299c2868,0 9278,764 9278,-1665 0,-1238 -289,-2379 -1903,-2379l-8089 0c-1875,0 -2450,4044 714,4044z"/>
    <path class="fil1" d="M22392 56186c0,1238 289,2379 1903,2379l8088 0c1677,0 2739,-4044 -951,-4044 -3047,0 -9040,-767 -9040,1665z"/>
    <path class="fil1" d="M67592 58565l8089 0c2689,0 2498,-4044 -238,-4044l-7137 0c-3164,0 -2589,4044 -714,4044z"/>
    <path class="fil1" d="M22392 32158c0,1444 1168,2141 2141,2141l7137 0c3145,0 2537,-4044 713,-4044l-8088 0c-1151,0 -1903,752 -1903,1903z"/>
   </g>
  </g>
 </g>
</svg>
